PathFileType	4	(X/Y/Z)	D:\TRACE\v60_Jaco2_6-2-23\JustArmDRS_Motion3_3-v60.trc
DataRate	CameraRate	NumFrames	NumMarkers	Units	OrigDataRate	OrigDataStartFrame	OrigNumFrames
100.00	100.00	      31	9	mm	100.00	876	      7000
Frame#	Time	front left toe			Front right toe			aft left toe			aft right toe			Arm			FL body			FR body			AL Body			AR Body			
		X1	Y1	Z1	X2	Y2	Z2	X3	Y3	Z3	X4	Y4	Z4	X5	Y5	Z5	X6	Y6	Z6	X7	Y7	Z7	X8	Y8	Z8	X9	Y9	Z9	

876	8.750	-154.98404	7.94540	-240.45921	244.00099	8.84330	-175.07007	-243.96744	34.88478	396.69000	165.72447	31.72200	411.97125	86.49919	1168.70044	-490.43777	-14.87585	557.66351	-353.55240	141.92699	556.84662	-332.41467	-130.90495	606.00201	582.78564	19.50667	596.45764	602.82990	
877	8.760	-154.79759	8.03710	-240.57269	244.29596	8.74448	-175.10612	-243.82008	35.00785	396.66742	166.33412	31.86014	411.98618	86.55029	1168.52881	-490.75705	-14.67218	557.70923	-353.50613	142.29190	556.85083	-332.35254	-130.73247	605.97076	582.79108	19.63607	596.45959	602.83667	
878	8.770	-154.56480	8.05547	-240.52422	244.57832	8.81650	-175.06335	-243.54173	35.01040	396.74872	166.58664	31.88658	412.04410	86.67519	1168.42554	-490.94492	-14.19023	557.70972	-353.43091	142.81482	556.71448	-332.31027	-130.41266	605.99243	582.79132	19.88351	596.49060	602.81989	
879	8.780	-154.25677	8.06717	-240.54160	244.75090	8.81510	-175.03961	-243.26888	35.00381	396.78745	166.84433	31.93436	412.03052	86.79942	1168.41821	-491.06726	-13.87072	557.71399	-353.44171	143.62798	556.60944	-332.44061	-129.73230	605.97162	582.81061	20.42512	596.43311	602.79559	
880	8.790	-153.82245	7.98103	-240.55893	244.94510	8.83006	-174.94719	-242.97041	34.97356	396.86990	166.89464	31.77737	411.97879	86.98656	1168.37134	-491.13062	-13.64594	557.67841	-353.47913	143.98581	556.55707	-332.47357	-129.26242	605.92017	582.81476	20.87259	596.35138	602.81854	
881	8.800	-153.57893	7.94476	-240.53970	245.15239	8.92423	-174.90488	-242.57262	34.81085	396.95526	167.01341	31.58120	411.96753	87.25549	1168.36963	-491.17331	-13.40028	557.75067	-353.53506	143.74449	556.64410	-332.35498	-129.04749	605.93616	582.83521	21.09075	596.32831	602.86487	
882	8.810	-153.32704	7.89046	-240.48459	245.75339	9.08321	-174.72978	-242.39975	34.76146	396.96848	167.02106	31.43855	411.94095	87.68801	1168.36133	-491.17288	-13.06123	557.66553	-353.57266	143.74263	556.66638	-332.47595	-128.93678	605.93512	582.83301	21.36183	596.27783	602.89233	
883	8.820	-153.14157	7.95869	-240.46991	246.15060	9.19034	-174.71399	-242.21880	34.81303	396.93777	167.10437	31.32868	411.94516	88.06517	1168.34460	-491.17981	-12.83847	557.74548	-353.51935	144.00917	556.75146	-332.34921	-128.77968	605.92010	582.89764	21.62263	596.28906	602.90594	
884	8.830	-152.91869	8.08038	-240.50946	246.29019	9.20080	-174.72798	-241.83818	34.86718	396.88565	167.52531	31.37416	411.99341	88.34909	1168.42969	-491.26089	-12.45378	557.88367	-353.51096	144.24126	556.79523	-332.34665	-128.64577	605.96106	582.84058	21.81266	596.33441	602.89349	
885	8.840	-152.69196	8.20406	-240.51523	246.32526	9.10074	-174.83696	-241.54272	34.87729	396.87338	167.91751	31.44118	412.01868	88.56592	1168.46533	-491.26355	-11.96137	557.75470	-353.28424	144.87749	556.78070	-332.16132	-128.41277	606.00952	582.86908	22.00539	596.42432	602.87518	
886	8.850	-152.35820	8.16655	-240.49110	246.34529	9.04820	-174.84305	-241.30717	34.87111	396.84036	168.32925	31.37787	412.03534	88.74062	1168.50989	-491.29538	-11.83372	557.77515	-353.31281	145.15178	556.80560	-332.13599	-127.96630	606.01868	582.91077	22.19121	596.45941	602.85907	
887	8.860	-152.02077	8.14873	-240.52809	246.60959	9.09139	-174.73930	-241.06255	34.83994	396.84644	168.75711	31.36595	412.04605	88.95162	1168.53857	-491.31659	-11.46969	557.72266	-353.23807	145.36314	556.78192	-332.11191	-127.42071	605.97931	582.98615	22.73958	596.38983	602.88983	
888	8.870	-151.73557	8.11458	-240.49561	246.96877	9.19834	-174.64375	-240.85150	34.76230	396.87634	169.06973	31.37839	412.04846	89.08009	1168.51050	-491.34009	-11.11168	557.66650	-353.08917	145.56711	556.76172	-332.15958	-127.01560	605.99048	582.94977	23.20592	596.34772	602.95599	
889	8.880	-151.49503	8.10661	-240.44064	247.35973	9.30767	-174.55190	-240.67647	34.75393	396.93506	169.28426	31.33774	412.08209	89.28487	1168.41541	-491.34293	-10.72815	557.58826	-352.95660	145.78159	556.79614	-332.12872	-126.67366	605.97021	582.95221	23.44139	596.34576	602.98792	
890	8.890	-151.24127	8.11309	-240.45370	247.67322	9.38999	-174.53331	-240.43686	34.69276	396.95093	169.34424	31.35122	412.00256	89.65979	1168.30066	-491.35608	-10.40809	557.56055	-352.88043	146.01556	556.76489	-332.09238	-126.50634	605.99677	582.93372	23.61586	596.33826	603.03986	
891	8.900	-151.05801	8.17239	-240.44853	247.90381	9.32620	-174.54973	-240.17937	34.65295	396.94849	169.32744	31.30232	411.98062	89.99675	1168.23999	-491.37180	-10.08962	557.52869	-352.81586	146.41885	556.77234	-332.09302	-126.30334	605.91492	582.99207	23.84208	596.26794	603.09607	
892	8.910	-150.92705	8.27648	-240.44009	248.13470	9.32687	-174.51082	-239.97400	34.58484	397.00824	169.37045	31.30324	411.96573	90.37121	1168.21692	-491.34473	-10.49909	557.75024	-353.32858	146.80965	556.76141	-331.97836	-126.16225	605.90271	583.06769	23.96401	596.27490	603.12451	
893	8.920	-150.81914	8.30323	-240.43387	248.21623	9.24980	-174.56158	-239.78319	34.62687	397.02469	169.41681	31.28665	411.96909	90.68120	1168.21606	-491.30768	-10.26184	557.80237	-353.31757	147.58607	556.63324	-332.06277	-125.93140	605.86591	583.10999	24.10309	596.22711	603.17065	
894	8.930	-150.60464	8.30431	-240.38783	248.71429	9.39702	-174.42468	-239.55714	34.65990	397.05542	169.58344	31.29100	411.94318	90.87079	1168.26306	-491.27008	-9.90317	557.86060	-353.29285	147.80527	556.68622	-332.04224	-125.74371	605.80890	583.14398	24.29399	596.24084	603.20160	
895	8.940	-150.37981	8.27087	-240.37152	248.96786	9.34011	-174.38898	-239.36555	34.77927	397.00305	169.96613	31.39745	411.96002	91.08971	1168.35339	-491.15527	-9.60251	557.91534	-353.30948	147.44002	556.80200	-331.93164	-125.58118	605.81848	583.12555	24.40057	596.27576	603.20978	
896	8.950	-150.13503	8.24381	-240.37883	249.30249	9.38179	-174.32004	-239.15105	34.76575	396.96515	170.43414	31.45931	412.04083	91.30738	1168.46899	-491.17740	-9.30089	557.98633	-353.37939	148.30678	556.70819	-332.07379	-125.33582	605.78815	583.10968	24.68246	596.23877	603.19781	
897	8.960	-149.94865	8.26819	-240.41243	249.34601	9.26762	-174.46378	-238.85718	34.78746	396.94345	170.87550	31.58417	412.10687	91.57739	1168.58887	-491.12439	-9.03266	558.00403	-353.38742	148.36295	556.73761	-332.11240	-124.91592	605.74744	583.04456	25.12929	596.16095	603.19226	
898	8.970	-149.72299	8.26252	-240.38448	249.35802	9.13055	-174.55190	-238.37184	34.75703	396.87601	171.19797	31.57457	412.18527	91.84645	1168.59375	-491.09009	-8.76277	557.94916	-353.32489	148.63263	556.77600	-332.09161	-124.69267	605.74005	583.04315	25.43291	596.13519	603.17993	
899	8.980	-149.44856	8.16750	-240.40002	249.45180	8.98855	-174.61067	-238.49120	34.83853	396.86877	171.62195	31.66405	412.23615	92.13477	1168.56616	-491.00763	-8.57630	557.99646	-353.26675	148.92026	556.79187	-332.10876	-124.49148	605.76886	583.01764	25.60583	596.13507	603.20868	
900	8.990	-149.22763	8.17331	-240.42815	249.59930	8.89102	-174.58557	-238.24796	34.83578	396.89783	171.90080	31.60812	412.28400	92.26392	1168.56848	-491.05081	-8.37323	558.01379	-353.22455	149.22549	556.83893	-332.02728	-124.38014	605.77698	583.00690	25.79288	596.14410	603.21075	
901	9.000	-149.12483	8.21458	-240.46706	249.74648	8.83808	-174.63416	-237.76799	34.75715	396.85544	171.98628	31.59196	412.27283	92.39906	1168.56970	-491.03607	-7.93725	557.78308	-352.94009	149.38251	556.85382	-332.04926	-124.28965	605.82288	583.03394	25.97513	596.11359	603.24701	
902	9.010	-149.01535	8.25561	-240.49120	250.02177	8.86129	-174.55701	-238.02640	34.88493	396.91483	172.02487	31.51389	412.27097	92.57730	1168.59253	-491.09192	-7.78133	557.77350	-352.91290	149.07368	556.94055	-331.88248	-124.12894	605.81116	583.03033	26.11304	596.10516	603.26923	
903	9.020	-148.87569	8.27115	-240.46342	250.16991	8.81774	-174.57683	-237.87064	34.85504	396.94296	172.04271	31.45915	412.26556	92.79467	1168.54541	-491.10544	-7.39285	557.76215	-352.87463	149.74036	556.86267	-332.02072	-123.98425	605.77679	583.06604	26.14402	596.09357	603.28448	
904	9.030	-148.67532	8.27843	-240.43752	250.31792	8.76471	-174.53624	-237.73459	34.75938	396.96524	172.06891	31.39234	412.28940	93.05839	1168.54358	-491.01733	-7.08572	557.76129	-352.78583	149.52994	556.92767	-331.85959	-123.80026	605.72198	583.10974	26.17687	596.08521	603.30237	
905	9.040	-148.45650	8.26355	-240.38664	250.38464	8.72992	-174.61186	-237.42653	34.60942	397.04776	172.05559	31.28197	412.29578	93.36567	1168.50879	-491.02356	-6.96792	557.79022	-352.75705	149.66620	556.90112	-331.87238	-123.60892	605.70862	583.13818	26.25700	596.07465	603.31525	
906	9.050	-148.23541	8.29908	-240.38887	250.52609	8.79655	-174.66241	-237.29533	34.57891	397.04358	172.06671	31.22818	412.26776	93.57244	1168.58289	-490.96494	-6.70033	557.81860	-352.67825	149.85219	556.95605	-331.82440	-123.48470	605.64551	583.18750	26.42407	596.06165	603.32666	
